<?xml version="1.0" encoding="UTF-8"?>
<svg width="15px" height="15px" viewBox="0 0 15 15" version="1.1" xmlns="http://www.w3.org/2000/svg" xmlns:xlink="http://www.w3.org/1999/xlink">
    <!-- Generator: Sketch 54 (76480) - https://sketchapp.com -->
    <title>路径复制 5</title>
    <desc>Created with Sketch.</desc>
    <g id="页面1" stroke="none" stroke-width="1" fill="none" fill-rule="evenodd">
        <g id="去评价" transform="translate(-250.000000, -98.000000)" fill="#FCA500" fill-rule="nonzero">
            <g id="星星" transform="translate(250.000000, 98.000000)">
                <g id="路径复制-5">
                    <path d="M11.3979153,15 C11.2180035,15 11.0380916,14.9530914 10.8431871,14.8436025 L7.81465625,13.1856271 C7.73969298,13.1387033 7.6347444,13.1074207 7.5148178,13.1074207 C7.40986922,13.1074207 7.28992799,13.1387033 7.21496471,13.1699859 L4.20144117,14.8436025 C4.02152932,14.9530914 3.84161746,15 3.6317203,15 C3.27189659,15 2.92706554,14.827946 2.68716843,14.5464182 C2.44728596,14.26486 2.35734467,13.8894846 2.41730065,13.514094 L3.00202881,10.0104479 C3.03201412,9.79147001 2.95705085,9.57249213 2.80710966,9.41607936 L0.378314283,6.96038358 C0.0334832306,6.61629076 -0.086458005,6.11575462 0.0634685395,5.6465163 C0.213380443,5.17726272 0.588211445,4.8487959 1.05298373,4.77058951 L4.41133833,4.25442737 C4.62123549,4.22314481 4.81612536,4.08237332 4.90608129,3.89467799 L6.40534673,0.703857469 C6.6152439,0.26590171 7.03503822,0 7.49981051,0 C7.9645828,0 8.38437712,0.26590171 8.59427428,0.703857469 L10.0935397,3.89467799 C10.1984883,4.09802987 10.3784002,4.22314481 10.5882973,4.25442737 L13.9466666,4.77060479 C14.4114389,4.84881117 14.7862552,5.17727799 14.9361818,5.63087503 C15.0861083,6.10011334 14.9661671,6.6006342 14.6363287,6.94475758 L12.2225113,9.41606408 C12.0575775,9.57247685 11.9976215,9.79145473 12.0275922,10.0104326 L12.597313,13.4984374 C12.6572836,13.873828 12.5673277,14.2492187 12.3274452,14.5307617 C12.1025701,14.827946 11.757739,15 11.3979153,15 Z" id="路径复制-4"></path>
                </g>
            </g>
        </g>
    </g>
</svg>